<mxfile host="app.diagrams.net" modified="2023-11-08T00:40:39.364Z" agent="Mozilla/5.0 (Windows NT 10.0; Win64; x64; rv:107.0) Gecko/20100101 Firefox/107.0" etag="nAmbWc-pzd5xgp7GzQLY" version="22.0.8" type="github">
  <diagram id="C5RBs43oDa-KdzZeNtuy" name="Page-1">
    <mxGraphModel dx="2261" dy="1943" grid="1" gridSize="10" guides="1" tooltips="1" connect="1" arrows="1" fold="1" page="1" pageScale="1" pageWidth="827" pageHeight="1169" math="0" shadow="0">
      <root>
        <mxCell id="WIyWlLk6GJQsqaUBKTNV-0" />
        <mxCell id="WIyWlLk6GJQsqaUBKTNV-1" parent="WIyWlLk6GJQsqaUBKTNV-0" />
        <mxCell id="wZlOc1_NLlanQc9pzDve-1" style="edgeStyle=orthogonalEdgeStyle;rounded=0;orthogonalLoop=1;jettySize=auto;html=1;" edge="1" parent="WIyWlLk6GJQsqaUBKTNV-1" source="wZlOc1_NLlanQc9pzDve-0">
          <mxGeometry relative="1" as="geometry">
            <mxPoint x="89" y="610" as="targetPoint" />
            <Array as="points">
              <mxPoint x="90" y="550" />
            </Array>
          </mxGeometry>
        </mxCell>
        <mxCell id="wZlOc1_NLlanQc9pzDve-5" style="edgeStyle=orthogonalEdgeStyle;rounded=0;orthogonalLoop=1;jettySize=auto;html=1;exitX=0;exitY=0.75;exitDx=0;exitDy=0;entryX=0.5;entryY=0;entryDx=0;entryDy=0;" edge="1" parent="WIyWlLk6GJQsqaUBKTNV-1" source="wZlOc1_NLlanQc9pzDve-0" target="wZlOc1_NLlanQc9pzDve-4">
          <mxGeometry relative="1" as="geometry" />
        </mxCell>
        <mxCell id="wZlOc1_NLlanQc9pzDve-7" value="" style="edgeStyle=orthogonalEdgeStyle;rounded=0;orthogonalLoop=1;jettySize=auto;html=1;" edge="1" parent="WIyWlLk6GJQsqaUBKTNV-1" source="wZlOc1_NLlanQc9pzDve-0">
          <mxGeometry relative="1" as="geometry">
            <mxPoint x="403" y="670" as="targetPoint" />
          </mxGeometry>
        </mxCell>
        <mxCell id="wZlOc1_NLlanQc9pzDve-12" style="edgeStyle=orthogonalEdgeStyle;rounded=0;orthogonalLoop=1;jettySize=auto;html=1;exitX=1;exitY=0.25;exitDx=0;exitDy=0;" edge="1" parent="WIyWlLk6GJQsqaUBKTNV-1" source="wZlOc1_NLlanQc9pzDve-0" target="wZlOc1_NLlanQc9pzDve-11">
          <mxGeometry relative="1" as="geometry" />
        </mxCell>
        <mxCell id="wZlOc1_NLlanQc9pzDve-13" style="edgeStyle=orthogonalEdgeStyle;rounded=0;orthogonalLoop=1;jettySize=auto;html=1;exitX=1;exitY=0.75;exitDx=0;exitDy=0;entryX=0.5;entryY=0;entryDx=0;entryDy=0;" edge="1" parent="WIyWlLk6GJQsqaUBKTNV-1" source="wZlOc1_NLlanQc9pzDve-0" target="wZlOc1_NLlanQc9pzDve-10">
          <mxGeometry relative="1" as="geometry" />
        </mxCell>
        <mxCell id="wZlOc1_NLlanQc9pzDve-42" style="edgeStyle=orthogonalEdgeStyle;rounded=0;orthogonalLoop=1;jettySize=auto;html=1;exitX=0.75;exitY=0;exitDx=0;exitDy=0;entryX=0.5;entryY=1;entryDx=0;entryDy=0;" edge="1" parent="WIyWlLk6GJQsqaUBKTNV-1" source="wZlOc1_NLlanQc9pzDve-0" target="wZlOc1_NLlanQc9pzDve-41">
          <mxGeometry relative="1" as="geometry" />
        </mxCell>
        <mxCell id="wZlOc1_NLlanQc9pzDve-44" value="&lt;div&gt;(1,N)&lt;/div&gt;" style="edgeLabel;html=1;align=center;verticalAlign=middle;resizable=0;points=[];" vertex="1" connectable="0" parent="wZlOc1_NLlanQc9pzDve-42">
          <mxGeometry x="-0.7948" y="-3" relative="1" as="geometry">
            <mxPoint y="1" as="offset" />
          </mxGeometry>
        </mxCell>
        <mxCell id="wZlOc1_NLlanQc9pzDve-0" value="PROFESSOR" style="rounded=0;whiteSpace=wrap;html=1;" vertex="1" parent="WIyWlLk6GJQsqaUBKTNV-1">
          <mxGeometry x="343" y="540" width="120" height="60" as="geometry" />
        </mxCell>
        <mxCell id="wZlOc1_NLlanQc9pzDve-2" value="CPF" style="ellipse;whiteSpace=wrap;html=1;" vertex="1" parent="WIyWlLk6GJQsqaUBKTNV-1">
          <mxGeometry x="29" y="610" width="120" height="80" as="geometry" />
        </mxCell>
        <mxCell id="wZlOc1_NLlanQc9pzDve-4" value="&lt;div&gt;NOME&lt;/div&gt;" style="ellipse;whiteSpace=wrap;html=1;" vertex="1" parent="WIyWlLk6GJQsqaUBKTNV-1">
          <mxGeometry x="179" y="620" width="120" height="80" as="geometry" />
        </mxCell>
        <mxCell id="wZlOc1_NLlanQc9pzDve-8" value="IDADE" style="ellipse;whiteSpace=wrap;html=1;" vertex="1" parent="WIyWlLk6GJQsqaUBKTNV-1">
          <mxGeometry x="343" y="630" width="120" height="80" as="geometry" />
        </mxCell>
        <mxCell id="wZlOc1_NLlanQc9pzDve-10" value="POSIÇÃO" style="ellipse;whiteSpace=wrap;html=1;" vertex="1" parent="WIyWlLk6GJQsqaUBKTNV-1">
          <mxGeometry x="519" y="620" width="120" height="80" as="geometry" />
        </mxCell>
        <mxCell id="wZlOc1_NLlanQc9pzDve-11" value="ESPECIALIDADE DE PESQUISA" style="ellipse;whiteSpace=wrap;html=1;" vertex="1" parent="WIyWlLk6GJQsqaUBKTNV-1">
          <mxGeometry x="679" y="610" width="120" height="80" as="geometry" />
        </mxCell>
        <mxCell id="wZlOc1_NLlanQc9pzDve-21" style="edgeStyle=orthogonalEdgeStyle;rounded=0;orthogonalLoop=1;jettySize=auto;html=1;exitX=1;exitY=0.75;exitDx=0;exitDy=0;entryX=0.5;entryY=1;entryDx=0;entryDy=0;" edge="1" parent="WIyWlLk6GJQsqaUBKTNV-1" source="wZlOc1_NLlanQc9pzDve-14" target="wZlOc1_NLlanQc9pzDve-20">
          <mxGeometry relative="1" as="geometry" />
        </mxCell>
        <mxCell id="wZlOc1_NLlanQc9pzDve-23" style="edgeStyle=orthogonalEdgeStyle;rounded=0;orthogonalLoop=1;jettySize=auto;html=1;exitX=0.5;exitY=0;exitDx=0;exitDy=0;entryX=0.5;entryY=1;entryDx=0;entryDy=0;" edge="1" parent="WIyWlLk6GJQsqaUBKTNV-1" source="wZlOc1_NLlanQc9pzDve-14" target="wZlOc1_NLlanQc9pzDve-18">
          <mxGeometry relative="1" as="geometry" />
        </mxCell>
        <mxCell id="wZlOc1_NLlanQc9pzDve-24" style="edgeStyle=orthogonalEdgeStyle;rounded=0;orthogonalLoop=1;jettySize=auto;html=1;exitX=0;exitY=0.25;exitDx=0;exitDy=0;entryX=0.5;entryY=1;entryDx=0;entryDy=0;" edge="1" parent="WIyWlLk6GJQsqaUBKTNV-1" source="wZlOc1_NLlanQc9pzDve-14" target="wZlOc1_NLlanQc9pzDve-17">
          <mxGeometry relative="1" as="geometry" />
        </mxCell>
        <mxCell id="wZlOc1_NLlanQc9pzDve-25" style="edgeStyle=orthogonalEdgeStyle;rounded=0;orthogonalLoop=1;jettySize=auto;html=1;exitX=0;exitY=0.75;exitDx=0;exitDy=0;entryX=0.5;entryY=1;entryDx=0;entryDy=0;" edge="1" parent="WIyWlLk6GJQsqaUBKTNV-1" source="wZlOc1_NLlanQc9pzDve-14" target="wZlOc1_NLlanQc9pzDve-15">
          <mxGeometry relative="1" as="geometry" />
        </mxCell>
        <mxCell id="wZlOc1_NLlanQc9pzDve-43" style="edgeStyle=orthogonalEdgeStyle;rounded=0;orthogonalLoop=1;jettySize=auto;html=1;exitX=0.75;exitY=1;exitDx=0;exitDy=0;entryX=0.5;entryY=0;entryDx=0;entryDy=0;" edge="1" parent="WIyWlLk6GJQsqaUBKTNV-1" source="wZlOc1_NLlanQc9pzDve-14" target="wZlOc1_NLlanQc9pzDve-41">
          <mxGeometry relative="1" as="geometry" />
        </mxCell>
        <mxCell id="wZlOc1_NLlanQc9pzDve-45" value="(0,N)" style="edgeLabel;html=1;align=center;verticalAlign=middle;resizable=0;points=[];" vertex="1" connectable="0" parent="wZlOc1_NLlanQc9pzDve-43">
          <mxGeometry x="-0.7458" y="2" relative="1" as="geometry">
            <mxPoint y="-3" as="offset" />
          </mxGeometry>
        </mxCell>
        <mxCell id="wZlOc1_NLlanQc9pzDve-14" value="PROJETOS" style="rounded=0;whiteSpace=wrap;html=1;" vertex="1" parent="WIyWlLk6GJQsqaUBKTNV-1">
          <mxGeometry x="342" y="-170" width="120" height="60" as="geometry" />
        </mxCell>
        <mxCell id="wZlOc1_NLlanQc9pzDve-15" value="NUMERO_PROJETO" style="ellipse;whiteSpace=wrap;html=1;" vertex="1" parent="WIyWlLk6GJQsqaUBKTNV-1">
          <mxGeometry x="28" y="-250" width="120" height="80" as="geometry" />
        </mxCell>
        <mxCell id="wZlOc1_NLlanQc9pzDve-17" value="NOME_FINANCIADOS" style="ellipse;whiteSpace=wrap;html=1;" vertex="1" parent="WIyWlLk6GJQsqaUBKTNV-1">
          <mxGeometry x="178" y="-280" width="120" height="80" as="geometry" />
        </mxCell>
        <mxCell id="wZlOc1_NLlanQc9pzDve-18" value="ORÇAMENTO" style="ellipse;whiteSpace=wrap;html=1;" vertex="1" parent="WIyWlLk6GJQsqaUBKTNV-1">
          <mxGeometry x="342" y="-300" width="120" height="80" as="geometry" />
        </mxCell>
        <mxCell id="wZlOc1_NLlanQc9pzDve-19" value="DATA_INICAL" style="ellipse;whiteSpace=wrap;html=1;" vertex="1" parent="WIyWlLk6GJQsqaUBKTNV-1">
          <mxGeometry x="509" y="-280" width="120" height="80" as="geometry" />
        </mxCell>
        <mxCell id="wZlOc1_NLlanQc9pzDve-20" value="DATA_FINAL" style="ellipse;whiteSpace=wrap;html=1;" vertex="1" parent="WIyWlLk6GJQsqaUBKTNV-1">
          <mxGeometry x="678" y="-250" width="120" height="80" as="geometry" />
        </mxCell>
        <mxCell id="wZlOc1_NLlanQc9pzDve-22" style="edgeStyle=orthogonalEdgeStyle;rounded=0;orthogonalLoop=1;jettySize=auto;html=1;exitX=1;exitY=0.25;exitDx=0;exitDy=0;entryX=0.567;entryY=1;entryDx=0;entryDy=0;entryPerimeter=0;" edge="1" parent="WIyWlLk6GJQsqaUBKTNV-1" source="wZlOc1_NLlanQc9pzDve-14" target="wZlOc1_NLlanQc9pzDve-19">
          <mxGeometry relative="1" as="geometry" />
        </mxCell>
        <mxCell id="wZlOc1_NLlanQc9pzDve-31" style="edgeStyle=orthogonalEdgeStyle;rounded=0;orthogonalLoop=1;jettySize=auto;html=1;entryX=1;entryY=0.5;entryDx=0;entryDy=0;" edge="1" parent="WIyWlLk6GJQsqaUBKTNV-1" source="wZlOc1_NLlanQc9pzDve-26" target="wZlOc1_NLlanQc9pzDve-28">
          <mxGeometry relative="1" as="geometry" />
        </mxCell>
        <mxCell id="wZlOc1_NLlanQc9pzDve-32" style="edgeStyle=orthogonalEdgeStyle;rounded=0;orthogonalLoop=1;jettySize=auto;html=1;exitX=0.25;exitY=0;exitDx=0;exitDy=0;entryX=1;entryY=0.5;entryDx=0;entryDy=0;" edge="1" parent="WIyWlLk6GJQsqaUBKTNV-1" source="wZlOc1_NLlanQc9pzDve-26" target="wZlOc1_NLlanQc9pzDve-27">
          <mxGeometry relative="1" as="geometry" />
        </mxCell>
        <mxCell id="wZlOc1_NLlanQc9pzDve-33" style="edgeStyle=orthogonalEdgeStyle;rounded=0;orthogonalLoop=1;jettySize=auto;html=1;exitX=0.25;exitY=1;exitDx=0;exitDy=0;entryX=1;entryY=0.5;entryDx=0;entryDy=0;" edge="1" parent="WIyWlLk6GJQsqaUBKTNV-1" source="wZlOc1_NLlanQc9pzDve-26" target="wZlOc1_NLlanQc9pzDve-29">
          <mxGeometry relative="1" as="geometry" />
        </mxCell>
        <mxCell id="wZlOc1_NLlanQc9pzDve-34" style="edgeStyle=orthogonalEdgeStyle;rounded=0;orthogonalLoop=1;jettySize=auto;html=1;exitX=0.5;exitY=1;exitDx=0;exitDy=0;entryX=1;entryY=0.5;entryDx=0;entryDy=0;" edge="1" parent="WIyWlLk6GJQsqaUBKTNV-1" source="wZlOc1_NLlanQc9pzDve-26" target="wZlOc1_NLlanQc9pzDve-30">
          <mxGeometry relative="1" as="geometry" />
        </mxCell>
        <mxCell id="wZlOc1_NLlanQc9pzDve-26" value="ESTUDANTE_PÓS" style="rounded=0;whiteSpace=wrap;html=1;" vertex="1" parent="WIyWlLk6GJQsqaUBKTNV-1">
          <mxGeometry x="-80" y="170" width="120" height="60" as="geometry" />
        </mxCell>
        <mxCell id="wZlOc1_NLlanQc9pzDve-27" value="CPF" style="ellipse;whiteSpace=wrap;html=1;" vertex="1" parent="WIyWlLk6GJQsqaUBKTNV-1">
          <mxGeometry x="-330" y="100" width="120" height="80" as="geometry" />
        </mxCell>
        <mxCell id="wZlOc1_NLlanQc9pzDve-28" value="&lt;div&gt;NOME&lt;/div&gt;" style="ellipse;whiteSpace=wrap;html=1;" vertex="1" parent="WIyWlLk6GJQsqaUBKTNV-1">
          <mxGeometry x="-200" y="20" width="120" height="80" as="geometry" />
        </mxCell>
        <mxCell id="wZlOc1_NLlanQc9pzDve-29" value="IDADE" style="ellipse;whiteSpace=wrap;html=1;" vertex="1" parent="WIyWlLk6GJQsqaUBKTNV-1">
          <mxGeometry x="-320" y="220" width="120" height="80" as="geometry" />
        </mxCell>
        <mxCell id="wZlOc1_NLlanQc9pzDve-30" value="PROGRAMA_PÓS" style="ellipse;whiteSpace=wrap;html=1;" vertex="1" parent="WIyWlLk6GJQsqaUBKTNV-1">
          <mxGeometry x="-200" y="300" width="120" height="80" as="geometry" />
        </mxCell>
        <mxCell id="wZlOc1_NLlanQc9pzDve-37" style="edgeStyle=orthogonalEdgeStyle;rounded=0;orthogonalLoop=1;jettySize=auto;html=1;entryX=0.506;entryY=1.05;entryDx=0;entryDy=0;entryPerimeter=0;" edge="1" parent="WIyWlLk6GJQsqaUBKTNV-1" target="wZlOc1_NLlanQc9pzDve-14">
          <mxGeometry relative="1" as="geometry">
            <mxPoint x="403.5" y="170" as="sourcePoint" />
            <mxPoint x="402.5" y="-99.99999999999977" as="targetPoint" />
          </mxGeometry>
        </mxCell>
        <mxCell id="wZlOc1_NLlanQc9pzDve-39" value="(1,N)" style="edgeLabel;html=1;align=center;verticalAlign=middle;resizable=0;points=[];" vertex="1" connectable="0" parent="wZlOc1_NLlanQc9pzDve-37">
          <mxGeometry x="0.6536" y="1" relative="1" as="geometry">
            <mxPoint y="1" as="offset" />
          </mxGeometry>
        </mxCell>
        <mxCell id="wZlOc1_NLlanQc9pzDve-38" style="edgeStyle=orthogonalEdgeStyle;rounded=0;orthogonalLoop=1;jettySize=auto;html=1;entryX=0.5;entryY=0;entryDx=0;entryDy=0;" edge="1" parent="WIyWlLk6GJQsqaUBKTNV-1">
          <mxGeometry relative="1" as="geometry">
            <mxPoint x="403" y="240.00000000000045" as="sourcePoint" />
            <mxPoint x="403" y="540" as="targetPoint" />
          </mxGeometry>
        </mxCell>
        <mxCell id="wZlOc1_NLlanQc9pzDve-40" value="(1,1)" style="edgeLabel;html=1;align=center;verticalAlign=middle;resizable=0;points=[];" vertex="1" connectable="0" parent="wZlOc1_NLlanQc9pzDve-38">
          <mxGeometry x="0.6783" y="1" relative="1" as="geometry">
            <mxPoint as="offset" />
          </mxGeometry>
        </mxCell>
        <mxCell id="wZlOc1_NLlanQc9pzDve-36" value="GERÊNCIA" style="rhombus;whiteSpace=wrap;html=1;" vertex="1" parent="WIyWlLk6GJQsqaUBKTNV-1">
          <mxGeometry x="320" y="160" width="166" height="80" as="geometry" />
        </mxCell>
        <mxCell id="wZlOc1_NLlanQc9pzDve-41" value="&lt;div&gt;CONDUÇÃO&lt;/div&gt;" style="rhombus;whiteSpace=wrap;html=1;" vertex="1" parent="WIyWlLk6GJQsqaUBKTNV-1">
          <mxGeometry x="496" y="160" width="166" height="80" as="geometry" />
        </mxCell>
      </root>
    </mxGraphModel>
  </diagram>
</mxfile>
